<?xml version="1.0" encoding="utf-8"?>
<!-- Generator: Adobe Illustrator 19.0.0, SVG Export Plug-In . SVG Version: 6.00 Build 0)  -->
<svg version="1.1" id="Layer_1" xmlns="http://www.w3.org/2000/svg" xmlns:xlink="http://www.w3.org/1999/xlink" x="0px" y="0px"
	 viewBox="0 0 200 200" style="enable-background:new 0 0 200 200;" xml:space="preserve">
<style type="text/css">
	.st0{fill:#010101;}
</style>
<g id="XMLID_1_">
	<path id="XMLID_4_" class="st0" d="M81,77c5.4-8.4,18.2-9.9,28.5-3.3l12.3,7.9c10.3,6.6,14.2,18.9,8.8,27.3L81,77z"/>
	<path id="XMLID_3_" class="st0" d="M35.5,147.5L85,179.4c-5.1,7.9-17.6,9-27.9,2.4l-12.3-7.9C34.5,167.2,30.4,155.4,35.5,147.5z"/>
	<path id="XMLID_2_" class="st0" d="M83.4,86.5l43.4,28c16.6,10.7,21.9,33.4,11,49.8c-10.6,15.9-32.3,20.5-48.5,10l-44.1-28.5
		c-3.4-2.2-8-1.2-10.2,2.2l49.5,31.9c19.5,12.6,46,8,59.1-11.2c13.7-19.9,8.2-47.2-12-60.2L81.3,76.1C79.2,79.7,80.2,84.3,83.4,86.5
		z"/>
</g>
<g id="XMLID_5_">
	<path id="XMLID_8_" class="st0" d="M123.8,123.5c-5.4,8.4-18.2,9.9-28.5,3.3L83,118.8c-10.3-6.6-14.2-18.9-8.8-27.3L123.8,123.5z"
		/>
	<path id="XMLID_7_" class="st0" d="M169.3,53l-49.5-31.9c5.1-7.9,17.6-9,27.9-2.4l12.3,7.9C170.3,33.3,174.4,45.1,169.3,53z"/>
	<path id="XMLID_6_" class="st0" d="M121.3,114L77.9,86C61.3,75.3,56,52.7,67,36.2c10.6-15.9,32.3-20.5,48.5-10l44.1,28.5
		c3.4,2.2,8,1.2,10.2-2.2l-49.5-31.9c-19.5-12.6-46-8-59.1,11.2C47.5,51.7,53.1,79,73.2,92l50.2,32.4
		C125.6,120.7,124.6,116.1,121.3,114z"/>
</g>
</svg>
